<svg xmlns="http://www.w3.org/2000/svg" xmlns:xlink="http://www.w3.org/1999/xlink" width="105" height="21" viewBox="0 0 105 21">
    <defs>
        <path id="a" d="M88.76 20.13c-.5 0-1.05-.25-1.52-.7h-.03l-.11.57h-.9v-7.97h1.14v2.11l-.03.94c.47-.41 1.06-.72 1.64-.72 1.39 0 2.18 1.11 2.18 2.8 0 1.89-1.13 2.97-2.37 2.97zm-.22-.95c.8 0 1.4-.71 1.4-2 0-1.15-.37-1.86-1.29-1.86-.43 0-.85.22-1.31.67v2.69c.42.37.86.5 1.2.5zm5.84.95c-1.49 0-2.68-1.06-2.68-2.87 0-1.79 1.22-2.9 2.51-2.9 1.46 0 2.24 1.05 2.24 2.61 0 .22-.02.45-.05.58h-3.57c.09 1.05.75 1.68 1.7 1.68.49 0 .91-.15 1.31-.41l.4.73c-.51.34-1.14.58-1.86.58zm-1.56-3.37h2.64c0-.95-.43-1.5-1.23-1.5-.69 0-1.3.53-1.41 1.5zm6.26 3.37c-1.24 0-1.67-.77-1.67-1.93v-2.78h-.8v-.86l.85-.06.13-1.52h.97v1.52h1.43v.92h-1.43v2.79c0 .66.23 1 .8 1 .19 0 .43-.06.59-.13l.21.85c-.31.1-.68.2-1.08.2zm3.01 0c-.95 0-1.62-.62-1.62-1.59 0-1.18 1-1.79 3.29-2.04-.01-.64-.24-1.2-1.05-1.2-.58 0-1.12.26-1.59.56l-.43-.78c.57-.36 1.34-.72 2.22-.72 1.37 0 2 .87 2 2.33V20h-.94l-.1-.63h-.03c-.5.43-1.09.76-1.75.76zm.35-.91c.48 0 .87-.23 1.32-.64v-1.35c-1.63.2-2.18.61-2.18 1.23 0 .54.37.76.86.76z"/>
    </defs>
    <g fill="#FFF" fill-rule="evenodd">
        <path d="M28.99 19.43v-6.273c0-1.872 1.009-2.686 2.25-2.686h1.142V7.924h-1.141c-2.732 0-4.953 1.394-4.953 4.965v6.541h2.701zM39.625 7.924h-1.778V4.142h-2.7v3.782H33.83v2.547h1.315v8.96h2.701v-8.96h1.778zM18.795 17.227a3.383 3.383 0 0 1-3.378-3.387 3.383 3.383 0 0 1 3.378-3.387 3.382 3.382 0 0 1 3.379 3.386 3.382 3.382 0 0 1-3.379 3.388m5.92-3.388c0-3.277-2.65-5.933-5.92-5.933s-5.919 2.656-5.919 5.934c0 3.277 2.65 5.933 5.92 5.933 1.186 0 2.29-.35 3.217-.952v.59h2.701v-5.56-.012M68.39 17.245a3.383 3.383 0 0 1-3.379-3.387 3.383 3.383 0 0 1 3.38-3.387 3.382 3.382 0 0 1 3.378 3.387 3.382 3.382 0 0 1-3.379 3.387zm5.92-3.387c0-3.278-2.65-5.934-5.92-5.934s-5.919 2.657-5.919 5.934 2.65 5.933 5.92 5.933c1.186 0 2.29-.35 3.217-.952v.591h2.702V13.858zM58.702 14.986a3.38 3.38 0 0 1-3.186 2.259 3.383 3.383 0 0 1-3.379-3.387 3.383 3.383 0 0 1 3.378-3.387 3.38 3.38 0 0 1 3.187 2.259h2.626a5.924 5.924 0 0 0-5.813-4.806 5.906 5.906 0 0 0-4.878 2.574c.186.605.279 1.333.279 2.184v4.91a5.903 5.903 0 0 0 4.6 2.2 5.923 5.923 0 0 0 5.812-4.806h-2.626z"/>
        <path d="M48.276 12.757a2.283 2.283 0 0 0-2.28-2.286c-1.26 0-2.281.854-2.281 2.7v6.259h-2.64V0h2.64v9.196c.94-.848 1.977-1.272 3.113-1.272 1.292 0 2.326.42 3.1 1.26.659.73.988 1.897.988 3.499v6.747h-2.64v-6.673zM4.765 10.658a3.372 3.372 0 0 1 3.536.777L2.555 13.53a3.384 3.384 0 0 1 2.21-2.873m7.067 2.85l-2.588.944a3.381 3.381 0 0 1-2.168 2.57 3.375 3.375 0 0 1-4.189-1.691l8.108-2.958.6-.22a5.914 5.914 0 0 0-7.7-3.89C.825 9.386-.759 12.79.36 15.87a5.914 5.914 0 0 0 7.587 3.546 5.934 5.934 0 0 0 3.886-5.907M78.584 19.448v-6.273c0-1.872 1.01-2.686 2.251-2.686h1.142V7.942h-1.142c-2.73 0-4.952 1.394-4.952 4.965v6.541h2.701z"/>
        <g opacity=".5">
            <use xlink:href="#a"/>
            <use xlink:href="#a"/>
        </g>
    </g>
</svg>
