<svg xmlns="http://www.w3.org/2000/svg" width="40" height="40" viewBox="0 0 40 40">
    <path fill="#4B5257" fill-rule="evenodd" d="M24.52 7c4.25.34 7 6 7 13s-2.48 12.67-7 13h-9.74C11 32.37 8 26.81 8 20s3-12.39 6.78-13zm-9.815 1.032l-.027.006C11.476 8.794 9 13.954 9 20c0 6.16 2.59 11.41 5.9 12l.054.035a1.02 1.02 0 0 1-.489-.645l-.021-.118-.268-2.148-1.592-1.464a1 1 0 0 1-.328-.74l.008-.121.266-2.154-1.244-1.835a.994.994 0 0 1-.065-.772l.04-.093.755-2.026-.73-1.969a.994.994 0 0 1-.029-.843l.059-.127 1.214-1.795-.266-2.125a1 1 0 0 1 .236-.774l.084-.086 1.591-1.446.258-2.14c.025-.223.124-.428.272-.582zM18.617 8h-1.871l-1.32.726-.28 2.334a.5.5 0 0 1-.1.244l-.06.066-1.73 1.57.29 2.308a.5.5 0 0 1-.038.263l-.044.08-1.29 1.9.025.054.82 2.2a.5.5 0 0 1 .023.263l-.023.087-.844 2.25 1.288 1.894a.5.5 0 0 1 .086.252l-.003.09-.29 2.34 1.732 1.59a.5.5 0 0 1 .14.221l.018.086.292 2.34-.007-.001 1.4.73c.057.03.105.068.145.113h1.802l-.037-.022a.986.986 0 0 1-.399-.588l-.018-.118-.268-2.148-1.592-1.464a1 1 0 0 1-.328-.74l.008-.121.266-2.154-1.216-1.787a1 1 0 0 1-.139-.8l.036-.113.755-2.026-.752-2.017a1 1 0 0 1 .04-.816l.062-.106 1.214-1.795-.266-2.125a1 1 0 0 1 .236-.774l.084-.086 1.591-1.446.258-2.14c.027-.238.138-.456.304-.614zm5.863 0h-3.854l-1.32.726-.28 2.334a.5.5 0 0 1-.1.244l-.06.066-1.73 1.57.29 2.308a.5.5 0 0 1-.038.263l-.044.08-1.318 1.948.823 2.206a.5.5 0 0 1 .023.263l-.023.087-.824 2.206 1.318 1.938a.5.5 0 0 1 .086.252l-.003.09-.29 2.34 1.732 1.59a.5.5 0 0 1 .14.221l.018.086.291 2.341 1.394.728c.057.03.105.068.145.113h3.604c3.64-.27 6.1-5.09 6.1-12 0-6.65-2.55-11.68-6.08-12zm.89 3.38c2.43 0 4.43 3.81 4.43 8.51 0 4.7-2 8.51-4.43 8.51-2.43 0-4.43-3.81-4.43-8.51 0-4.7 1.99-8.51 4.43-8.51zm0 1c-1.62 0-3.43 3.08-3.43 7.51s1.8 7.51 3.43 7.51c1.63 0 3.43-3.08 3.43-7.51s-1.81-7.51-3.43-7.51z"/>
</svg>
