<svg xmlns="http://www.w3.org/2000/svg" width="24" height="24" viewBox="0 0 24 24">
    <path fill="#FFF" fill-rule="evenodd" d="M12 2c.35 0 .638.142 1.302.614.709.502 9.294 7.095 8.518 6.502.59.492.688 1.583.034 2.238a1.503 1.503 0 0 1-1.354.415V21.2a.8.8 0 0 1-.8.8H10l-.017-.001L4.3 22a.8.8 0 0 1-.794-.7l-.006-.1v-9.433a1.498 1.498 0 0 1-1.354-.413c-.654-.655-.557-1.746.05-2.251 1.826-1.396 6.964-5.346 7.66-5.87.355-.267.628-.468.847-.623C11.363 2.14 11.65 2 12 2zm0 3.5c-.1 0-.244.067-.709.405-.541.393-5.5 4.32-6.79 5.337L4.5 21l4.5-.001V15a1 1 0 0 1 1-1h4a1 1 0 0 1 1 1v5.999l4.5.001.002-9.756c-1.21-.954-6.247-4.94-6.796-5.34-.477-.347-.6-.404-.706-.404zm2 9.5h-4v5.999h4V15zM12 3c-.073 0-.222.073-.719.426-.21.149-.476.344-.823.606-.692.52-5.825 4.466-7.638 5.852-.153.128-.19.539.034.762.212.213.586.17.826-.03l.011-.01c.84-.658 6.419-5.08 7.013-5.51.622-.452.93-.596 1.296-.596.371 0 .66.135 1.294.596.606.44 6.342 4.982 7.026 5.52.24.2.614.243.826.03.224-.223.187-.634.05-.749.745.57-7.782-5.978-8.472-6.468-.5-.355-.65-.429-.724-.429z"/>
</svg>
