<svg xmlns="http://www.w3.org/2000/svg" width="40" height="40" viewBox="0 0 40 40">
    <path fill="#4B5257" fill-rule="evenodd" d="M15.459 9.151a77.7 77.7 0 0 1 9.682 0l.199.018a3.68 3.68 0 0 1 3.03 2.413l1.113 3.118.078.062a5.502 5.502 0 0 1 1.94 4.117l-.001.252-.041.952a.5.5 0 0 1 .256.22l.037.082 3.82 10.92a.5.5 0 0 1-.388.658l-.084.007H5.5a.5.5 0 0 1-.493-.583l.02-.082 3.81-10.92a.5.5 0 0 1 .402-.33l-.038-.922a5.5 5.5 0 0 1 2.024-4.52l-.111.093 1.115-3.125A3.68 3.68 0 0 1 15.26 9.17zM9.32 22.034l-3.117 8.935h28.191l-3.028-8.657-.038.909a.958.958 0 0 1-.349.682v1.9a1.19 1.19 0 0 1-1.054 1.2l-.136.007h-1.36a1.2 1.2 0 0 1-1.194-1.077l-.006-.123v-1.47c-4.616.258-9.243.256-13.86-.005v1.475a1.2 1.2 0 0 1-1.077 1.194l-.123.006h-1.36a1.19 1.19 0 0 1-1.184-1.067l-.006-.133v-2.002a.956.956 0 0 1-.25-.607l-.05-1.167zm20.659 2.122c-.583.046-1.166.087-1.75.125v1.529a.2.2 0 0 0 .147.193l.053.007h1.36a.19.19 0 0 0 .184-.145l.006-.055zm-19.36-.009v1.67a.19.19 0 0 0 .14.186l.05.007h1.36a.2.2 0 0 0 .193-.147l.007-.053v-1.536c-.708-.046-1.416-.098-2.123-.156l.373.029zm14.459-13.998a76.697 76.697 0 0 0-9.557 0 2.68 2.68 0 0 0-2.351 1.77l-1.207 3.38-.109.089a4.501 4.501 0 0 0-1.655 3.701l.167 4.035 1.298.1c5.783.411 11.587.411 17.369 0l1.298-.1.168-4.03a4.5 4.5 0 0 0-1.56-3.547l-.186-.151-.116-.09-1.209-3.387a2.68 2.68 0 0 0-2.35-1.77zM11.507 18.1c.265-.986 1.81-1.367 3.12-1.024 1.221.32 1.824 1.242 1.555 2.287-.281 1.02-1.267 1.512-2.48 1.19-1.298-.343-2.46-1.465-2.195-2.453zm14.566-1.024c1.31-.343 2.855.038 3.12 1.024.265.988-.897 2.11-2.195 2.453-1.226.325-2.262-.183-2.482-1.198-.267-1.037.336-1.958 1.557-2.279zm-11.7.968c-.849-.223-1.82.017-1.9.316-.08.3.65 1.006 1.485 1.227.707.187 1.132-.025 1.258-.482.124-.481-.134-.876-.843-1.061zm13.854.316c-.08-.3-1.051-.539-1.9-.316-.709.185-.967.58-.838 1.08.093.432.541.651 1.253.463.834-.221 1.566-.927 1.485-1.227zm-13.41-7.258a64.013 64.013 0 0 1 10.929-.002l.126.004c.345.037.64.268.762.608l1 3a.5.5 0 0 1-.07.453l-.6.82a.5.5 0 0 1-.426.205c-4.125-.18-8.257-.18-12.396 0a.5.5 0 0 1-.423-.202l-.61-.82a.5.5 0 0 1-.073-.456l1.009-3.025a.93.93 0 0 1 .757-.584zm9.9.92a63.26 63.26 0 0 0-9.814.076l.059-.005-.895 2.687.297.4 1.297-.049c3.125-.101 6.245-.101 9.362 0l1.29.049.29-.397-.894-2.685z"/>
</svg>
