<svg xmlns="http://www.w3.org/2000/svg" width="24" height="24" viewBox="0 0 24 24">
    <path fill="#363C40" fill-rule="evenodd" d="M12.089 2.896c-2.01-2.01-5.02-2.42-7.44-1.24l3.63 3.63c.39.39.39 1.02 0 1.41l-1.59 1.59c-.39.4-1.02.4-1.41 0l-3.63-3.63c-1.17 2.43-.76 5.42 1.25 7.43a6.507 6.507 0 0 0 6.89 1.48l7.96 7.96a2.613 2.613 0 0 0 3.71 0 2.613 2.613 0 0 0 0-3.71l-7.92-7.93c.92-2.34.44-5.1-1.45-6.99zM2.088 6.51l2.484 2.483c.773.794 2.05.794 2.833-.009l1.58-1.58c.781-.781.781-2.044 0-2.825L6.498 2.091a5.495 5.495 0 0 1 4.885 1.512 5.507 5.507 0 0 1 1.226 5.917l-.24.61 8.383 8.393c.64.633.64 1.657 0 2.296a1.615 1.615 0 0 1-2.295 0l-8.416-8.416-.604.227a5.506 5.506 0 0 1-5.83-1.25 5.487 5.487 0 0 1-1.518-4.87z"/>
</svg>
