<svg xmlns="http://www.w3.org/2000/svg" width="20" height="20" viewBox="0 0 20 20">
    <path fill="#363C40" fill-rule="evenodd" d="M10 1.667c.458 0 .87.253 1.072.66l1.804 3.626a.527.527 0 0 0 .397.286l4.036.582c.454.065.823.374.965.807.142.432.026.897-.302 1.214l-2.92 2.823a.52.52 0 0 0-.152.463l.69 3.985c.077.448-.105.891-.476 1.159a1.198 1.198 0 0 1-1.259.09l-3.61-1.881a.532.532 0 0 0-.49 0l-3.61 1.881a1.194 1.194 0 0 1-1.259-.09 1.173 1.173 0 0 1-.475-1.159l.69-3.985a.521.521 0 0 0-.153-.464l-2.92-2.822a1.184 1.184 0 0 1 .662-2.021l4.036-.582a.527.527 0 0 0 .398-.286l1.804-3.626c.203-.407.614-.66 1.072-.66zm0 .662a.518.518 0 0 0-.474.291L7.722 6.246c-.174.35-.51.592-.9.648l-4.035.582a.517.517 0 0 0-.426.356.51.51 0 0 0 .133.536l2.92 2.823c.282.272.41.664.344 1.049l-.689 3.985c-.034.2.044.392.21.512.166.12.373.134.556.04l3.609-1.882a1.205 1.205 0 0 1 1.112 0l3.61 1.882c.182.094.389.08.555-.04a.512.512 0 0 0 .21-.512l-.689-3.985a1.178 1.178 0 0 1 .344-1.05l2.92-2.822a.51.51 0 0 0 .133-.536.517.517 0 0 0-.426-.356l-4.035-.582a1.192 1.192 0 0 1-.9-.648L10.473 2.62A.519.519 0 0 0 10 2.329z"/>
</svg>
