<svg xmlns="http://www.w3.org/2000/svg" width="24" height="24" viewBox="0 0 24 24">
    <path fill="#363C40" fill-rule="evenodd" d="M12 2c3.866 0 7 3.13 7 6.99 0 2.862-1.654 5.354-3.27 7.107l.089-.097h2.074a2 2 0 0 1 1.89 1.342l.696 2A2 2 0 0 1 18.59 22H5.41a2 2 0 0 1-1.889-2.658l.697-2A2 2 0 0 1 6.106 16h2.075l.05.055C6.628 14.305 5 11.83 5 8.991 5 5.13 8.134 2 12 2zm.672 16.773c-.37.303-.975.303-1.344 0 0 0-.957-.633-2.127-1.736l-.039-.036L6.106 17a1 1 0 0 0-.944.671l-.697 2A1 1 0 0 0 5.41 21h13.18a1 1 0 0 0 .944-1.329l-.696-2a1 1 0 0 0-.945-.671h-3.055l.084-.08c-1.225 1.175-2.25 1.853-2.25 1.853zM12 3C8.686 3 6 5.682 6 8.99c0 2.16 1.079 4.304 2.905 6.32a18.46 18.46 0 0 0 2.063 1.944c.418.339.739.57.911.685l.082.06h.078l.082-.06c.172-.114.493-.346.911-.685a18.46 18.46 0 0 0 2.063-1.945C16.921 13.294 18 11.15 18 8.991A5.995 5.995 0 0 0 12 3zm0 3c1.654 0 3 1.346 3 3s-1.346 3-3 3-3-1.346-3-3 1.346-3 3-3zm0 1c-1.102 0-2 .898-2 2 0 1.102.898 2 2 2 1.102 0 2-.898 2-2 0-1.102-.898-2-2-2z"/>
</svg>
