<svg xmlns="http://www.w3.org/2000/svg" width="20" height="20" viewBox="0 0 20 20">
    <path fill="#363C40" fill-rule="evenodd" d="M6.5 2a.5.5 0 0 1 .5.5V3h6v-.5a.5.5 0 0 1 .5-.5h2a.5.5 0 0 1 .5.5V3h1.5a.5.5 0 0 1 .5.5v14a.5.5 0 0 1-.5.5h-15a.5.5 0 0 1-.5-.5v-14a.5.5 0 0 1 .5-.5H4v-.5a.5.5 0 0 1 .5-.5h2zM17 8H3v9h14V8zM4 4H3v3h14V4h-1v.5l-.008.09a.5.5 0 0 1-.402.402L15.5 5h-2l-.09-.008a.5.5 0 0 1-.402-.402L13 4.5V4H7v.5l-.008.09a.5.5 0 0 1-.402.402L6.5 5h-2l-.09-.008a.5.5 0 0 1-.402-.402L4 4.5V4zm2-1H5v1h1V3zm9 0h-1v1h1V3z"/>
</svg>
