<svg xmlns="http://www.w3.org/2000/svg" width="24" height="24" viewBox="0 0 24 24">
    <g fill="#363C40" fill-rule="evenodd">
        <path d="M7.234.048l2.11 1.494-.568 2.523a.605.605 0 0 1-1.181-.266l.233-1.039-.235.108a10.29 10.29 0 0 0-5.882 9.301c0 5.683 4.606 10.29 10.289 10.29s10.29-4.607 10.29-10.29c0-5.683-4.607-10.29-10.29-10.29a.605.605 0 0 1 0-1.21c6.351 0 11.5 5.149 11.5 11.5s-5.149 11.5-11.5 11.5S.5 18.52.5 12.17c0-4.605 2.732-8.71 6.875-10.532l.005-.002-.846-.6a.605.605 0 0 1 .7-.987z"/>
        <path d="M13.462 8.798c.063 0 .1.038.1.103v3.846h.558c.062 0 .098.038.098.104v.722h.001c0 .066-.036.103-.099.103h-.558v1.577c0 .065-.036.103-.1.103h-.81c-.063 0-.099-.038-.099-.103v-1.577H9.535c-.063 0-.099-.037-.099-.103v-.788c0-.056.01-.094.046-.131.224-.272.423-.526.64-.835l1.666-2.233c.17-.235.306-.46.459-.723.036-.047.072-.065.126-.065h1.089zm3.164-.065v1.753l-.034.906c.4-.382.856-.723 1.48-.723.972 0 1.404.648 1.404 1.811v2.876h-.956v-2.76c0-.789-.232-1.104-.772-1.104-.424 0-.715.216-1.122.623v3.24h-.948V8.734h.948zm-10.03-.03c1.28 0 2.063.666 2.063 1.802 0 .628-.334 1.107-1.045 1.595l-1.432 1.003c-.442.31-.64.798-.64 1.324h2.927c.063 0 .1.037.1.102v.723c0 .065-.037.103-.1.103H4.623c-.063 0-.099-.038-.099-.103v-.45c0-1.145.36-1.97 1.17-2.524l1.424-.985c.36-.254.521-.498.521-.788 0-.526-.396-.863-1.045-.863-.405 0-.792.075-1.134.196l-.523.179c-.053.018-.099-.01-.117-.066l-.225-.704c-.027-.056 0-.103.063-.122l.506-.177c.478-.15.937-.244 1.432-.244zm5.876 1.464l-1.46 1.932a3.914 3.914 0 0 1-.414.506c-.063.075-.027.14.045.14h1.91v-1.621c0-.3.018-.6.054-.92.018-.113-.063-.141-.135-.037z"/>
    </g>
</svg>
