<svg xmlns="http://www.w3.org/2000/svg" width="24" height="24" viewBox="0 0 24 24">
    <path fill="#FFF" fill-rule="evenodd" d="M8.5 2a.5.5 0 0 1 .5.5V3h6v-.5a.5.5 0 0 1 .5-.5h3a.5.5 0 0 1 .5.5V3h2.5a.5.5 0 0 1 .5.5v18a.5.5 0 0 1-.5.5h-19a.5.5 0 0 1-.5-.5v-18a.5.5 0 0 1 .5-.5H5v-.5a.5.5 0 0 1 .5-.5h3zM21 10H3v11h18V10zM5 4H3v5h18V4h-2v1.5l-.008.09a.5.5 0 0 1-.402.402L18.5 6h-3l-.09-.008a.5.5 0 0 1-.402-.402L15 5.5V4H9v1.5l-.008.09a.5.5 0 0 1-.402.402L8.5 6h-3l-.09-.008a.5.5 0 0 1-.402-.402L5 5.5V4zm3-1H6v2h2V3zm10 0h-2v2h2V3z"/>
</svg>
