<svg xmlns="http://www.w3.org/2000/svg" width="24" height="24" viewBox="0 0 24 24">
    <path fill="#FFF" fill-rule="evenodd" d="M12 5c-1.478 0-2.446.098-3.06.206-.578.101-.828.219-.86.231 0 .002-.051.013-.051.013-.617.206-1.556.49-1.993 1.326-.105.202-.263.614-.494 1.196-.178.448-.386 1.012-.6 1.557H3.707c-.619 0-1.078.205-1.354.515-.277.31-.352.679-.352.965 0 .32.17.64.43.798.26.158.551.193.86.193h.69l-.287.746-.026.078v4.94A1.25 1.25 0 0 0 4.917 19h1.666a1.25 1.25 0 0 0 1.25-1.235v-.412h8.334v.412A1.25 1.25 0 0 0 17.417 19h1.666a1.25 1.25 0 0 0 1.25-1.235v-4.941l-.026-.078s-.218-.572-.286-.746h.69c.308 0 .599-.035.86-.193a.95.95 0 0 0 .429-.798c0-.286-.075-.654-.352-.965-.276-.31-.735-.515-1.354-.515h-1.237c-.026-.06-.052-.12-.065-.154-.45-1.152-.885-2.249-1.041-2.6-.4-.895-1.425-1.17-1.98-1.325-.018-.004-.048-.02-.065-.025v.013c-.039-.017-.276-.13-.846-.232C14.446 5.098 13.478 5 12 5zm0 .824c1.439 0 2.363.107 2.917.205.553.099.69.168.69.168l.039.013.026.012c.508.144 1.326.473 1.51.888.12.27.594 1.475 1.029 2.574.104.262.278.69.221.952-.029.132-.08.227-.273.335-.194.107-.558.205-1.159.205H7c-.6 0-.965-.098-1.159-.205-.194-.108-.244-.203-.273-.335-.057-.262.117-.69.221-.952l-.026-.013c.19-.49.386-.999.547-1.403.23-.577.434-1.04.469-1.106.23-.444.952-.747 1.562-.952h.026l.026-.013s.137-.07.69-.168c.554-.098 1.478-.205 2.917-.205zm-8.294 4.529h.898c-.158.41-.185.49-.312.823H3.289c-.233 0-.378-.04-.417-.064-.039-.024-.039.013-.039-.103 0-.15.043-.312.144-.424.1-.113.276-.232.729-.232zm15.664 0h.924c.453 0 .629.119.73.232.1.112.143.275.143.424 0 .116 0 .079-.04.103-.038.024-.183.064-.416.064h-1.016c-.133-.337-.162-.406-.325-.823zM5.099 11.42c.096.1.207.196.338.27.376.21.875.309 1.563.309h10c.688 0 1.187-.1 1.563-.309a1.48 1.48 0 0 0 .338-.27c.244.634.584 1.522.599 1.557v3.204c0 .193-.163.347-.378.347H4.878c-.215 0-.378-.154-.378-.347v-3.204c.013-.035.361-.93.599-1.557zm1.068.99a1.25 1.25 0 0 0-1.25 1.236c0 .365.153.69.364.914.212.223.467.374.716.514.354.198.594.35.873.464.278.114.578.167.963.167.915 0 1.667-.742 1.667-1.647 0-.906-.752-1.647-1.667-1.647H6.167zm10 0c-.915 0-1.667.742-1.667 1.648 0 .905.752 1.647 1.667 1.647.385 0 .685-.053.963-.167.279-.115.52-.266.873-.464.249-.14.504-.29.716-.514a1.34 1.34 0 0 0 .364-.914 1.25 1.25 0 0 0-1.25-1.235h-1.666zm-10 .824h1.666c.466 0 .834.364.834.824 0 .46-.368.823-.834.823-.312 0-.467-.027-.65-.103-.185-.075-.414-.218-.782-.424a2.208 2.208 0 0 1-.508-.36c-.1-.107-.143-.176-.143-.348 0-.232.182-.412.417-.412zm10 0h1.666c.235 0 .417.18.417.412 0 .172-.042.241-.143.347-.101.107-.274.23-.508.36-.368.207-.597.35-.781.425-.184.076-.339.103-.651.103a.822.822 0 0 1-.834-.823c0-.46.368-.824.834-.824zM4.5 17.29c.12.038.246.064.378.064H7v.412a.409.409 0 0 1-.417.411H4.917a.409.409 0 0 1-.417-.411v-.476zm15 0v.476a.409.409 0 0 1-.417.411h-1.666a.409.409 0 0 1-.417-.411v-.412h2.122c.132 0 .258-.026.378-.064z"/>
</svg>
