<svg xmlns="http://www.w3.org/2000/svg" width="40" height="40" viewBox="0 0 40 40">
    <path fill="#4B5257" fill-rule="evenodd" d="M26.77 20.46l1 .19c-.16.28-.34.55-.53.82h2.55l.17-.05.63.34a9.3 9.3 0 0 1-2.53 3.58H32v4.34h-1v-.41h-3.78v.39h-.93v-3A12.52 12.52 0 0 1 24 27.71a3.78 3.78 0 0 0-.53-.83A11.2 11.2 0 0 0 27 25.05a12.59 12.59 0 0 0-1.68-1.51 12.62 12.62 0 0 1-1.23.84 2.83 2.83 0 0 0-.66-.72 8.34 8.34 0 0 0 3.34-3.2zM14.62 10c3.38 0 5.53 2.24 5.53 5.64 0 3.8-3 7.67-7.46 11.91 1-.08 2.16-.18 3.12-.18h5.28v2.05H9.1V28c6-5.23 8.74-9 8.74-12.3 0-2.16-1.14-3.7-3.51-3.7a5.33 5.33 0 0 0-3.95 2.16L9 12.81A7.3 7.3 0 0 1 14.62 10zM31 26.19h-3.78v2.24H31v-2.24zm-1.62-3.89h-2.75c-.19.21-.39.43-.61.63.62.444 1.202.94 1.74 1.48a7.82 7.82 0 0 0 1.62-2.11z"/>
</svg>
