<svg xmlns="http://www.w3.org/2000/svg" width="40" height="40" viewBox="0 0 40 40">
    <path fill="#4B5257" fill-rule="evenodd" d="M14.24 12.57a93.61 93.61 0 0 1 11.39 0l.21.02a4.229 4.229 0 0 1 3.51 2.79l1.333 3.691.092.075a6.36 6.36 0 0 1 2.22 4.84l-.005.266-.21 4.765a1.03 1.03 0 0 1-.36.747v2.356a1.32 1.32 0 0 1-1.185 1.313l-.135.007h-1.6a1.32 1.32 0 0 1-1.312-1.171l-.008-.149v-1.861c-5.499.308-11.01.308-16.51-.001v1.862a1.32 1.32 0 0 1-1.171 1.312l-.149.008h-1.6a1.32 1.32 0 0 1-1.313-1.185l-.007-.135v-2.376a1.067 1.067 0 0 1-.35-.723l-.2-4.8a6.36 6.36 0 0 1 2.42-5.274l-.113.093 1.342-3.656a4.23 4.23 0 0 1 3.5-2.794zm17.18 17.471c-.747.059-1.493.111-2.24.158v1.921a.32.32 0 0 0 .257.314l.063.006h1.6a.32.32 0 0 0 .312-.247l.008-.073zm-22.99-.003v2.082a.32.32 0 0 0 .247.312l.073.008h1.6a.32.32 0 0 0 .314-.257l.006-.063v-1.922c-.879-.055-1.757-.119-2.634-.19l.393.03zm17.14-16.469a92.6 92.6 0 0 0-11.267 0 3.232 3.232 0 0 0-2.834 2.153l-1.438 3.923-.112.088a5.36 5.36 0 0 0-2.04 4.446l.2 4.787c.002.024.02.044.041.046a146.15 146.15 0 0 0 23.633 0c.015-.002.027-.014.027-.034l.21-4.77a5.36 5.36 0 0 0-2.04-4.445l-.112-.089-1.43-3.957a3.23 3.23 0 0 0-2.838-2.148zm3.866 7.16c.053-.03.07-.04.214.009l.27.096.156.137.013.208c.043.687.043 1.375.001 2.031 0 .665-.816 1.14-1.546 1.189a82.66 82.66 0 0 1-3.026.121l-.12-.003c-.594-.062-.918-.854-.363-1.171l1.13-.701 1.504-.921.977-.582c.128-.075.24-.14.336-.193l.237-.128.144-.066zm-19.575.105c.407-.148.407-.148.483-.104l.046.015.06.023.178.088.506.286c.265.154.594.35.977.582l1.504.92 1.113.692c.587.335.231 1.164-.398 1.164-.206 0-1.53-.04-2.392-.07l-.702-.031c-.73-.05-1.546-.524-1.545-1.158a16.68 16.68 0 0 1 0-2.062l.013-.208zm19.256 1.19l-.71.423-1.701 1.038.236-.009 1.534-.075c.18-.012.393-.105.515-.167l.1-.055c.02-.323.03-.646.03-.969l-.004-.186zm-18.455 0l-.003.19c0 .327.01.658.031.996 0-.027.343.173.614.191l1.736.064-.894-.549-.773-.47-.711-.422zm2.825-7.142a74.51 74.51 0 0 1 12.884-.001c.396.024.736.29.851.654l1.23 3.53a.5.5 0 0 1-.064.454l-.71 1a.5.5 0 0 1-.43.21c-4.859-.219-9.73-.219-14.616 0a.5.5 0 0 1-.428-.207l-.72-1a.5.5 0 0 1-.067-.455l1.219-3.526a.97.97 0 0 1 .867-.66zm11.751.912a73.524 73.524 0 0 0-11.661.084l-1.13 3.27.411.571 1.367-.054c3.82-.133 7.633-.133 11.438 0l1.356.054.403-.568-1.14-3.274zM8.382 9.765l.551.99.24.443.113.22.125.267c.052.1.115.19.177.256.118.109.253.196.417.268l.195.096 1.7.866-1.045.582-.443.24-.22.113-.267.125a1.181 1.181 0 0 0-.26.182 1.287 1.287 0 0 0-.248.376 3.107 3.107 0 0 1-.124.27l-.128.244-.185.334-.571.988-.627-1.14-.276-.523-.127-.27a1.1 1.1 0 0 0-.188-.264 1.125 1.125 0 0 0-.37-.241 3.107 3.107 0 0 1-.27-.124l-.244-.128-.334-.185-.988-.571.88-.485.64-.345.277-.139c.13-.064.25-.149.346-.245.106-.111.19-.242.243-.369a2.86 2.86 0 0 1 .123-.273l.126-.241.19-.344.572-.973zm21.912-3.757l1.097 2.445c.099.197.223.377.36.521.209.195.45.353.714.47l2.323 1.043-2.336.974a2.327 2.327 0 0 0-.677.431 2.363 2.363 0 0 0-.459.713l-1.022 2.277-.51-1.117-.521-1.163a2.546 2.546 0 0 0-.448-.69 2.218 2.218 0 0 0-.693-.448l-2.414-.977 2.404-1.046c.26-.112.499-.27.685-.445a2.418 2.418 0 0 0 .5-.786l.997-2.202zM8.366 11.816l-.04.088-.023.056a2.252 2.252 0 0 1-.458.703 2.315 2.315 0 0 1-.638.452l-.158.078.29.13c.203.1.39.233.559.398.197.202.353.442.447.682l.078.157.135-.293c.1-.198.23-.382.397-.56.202-.191.438-.344.686-.446l.12-.058-.317-.154a2.515 2.515 0 0 1-.556-.394 2.224 2.224 0 0 1-.447-.686l-.014-.031-.061-.122zm21.922-3.378l-.109.25c-.159.368-.38.705-.675 1.015-.291.275-.628.497-.995.655l-.217.095.207.084c.298.122.576.287.836.502l.191.17c.27.291.491.626.654.994l.108.249.21-.462c.11-.215.242-.419.401-.613l.169-.192a3.34 3.34 0 0 1 1-.646l.203-.086-.213-.096a3.53 3.53 0 0 1-.82-.505l-.19-.167a3.191 3.191 0 0 1-.644-.99l-.116-.257z"/>
</svg>
