<svg xmlns="http://www.w3.org/2000/svg" width="20" height="21" viewBox="0 0 20 21">
    <path fill="#363C40" fill-rule="evenodd" d="M17.491 16.01c-.02-.137-.266-.374-.738-.713-.125-.102-2.202-1.818-2.3-1.887-.097-.068-.198-.111-.302-.129-.147-.025-.35.045-.609.211-.258.166-.502.353-.73.562-.142.13-.437.367-.437.367l-.328.236c-.217.142-.386.202-.508.181-.067-.011-.863-.572-.876-.582-.913-.716-1.684-1.475-2.28-2.3-.595-.825-1.069-1.787-1.451-2.864-.005-.016-.035-.09-.09-.225-.056-.135-.186-.707-.175-.771.022-.117.135-.249.34-.395l.342-.22c.165-.097.336-.19.514-.277.28-.137.544-.294.794-.473s.387-.34.413-.483c.018-.1.011-.206-.022-.319-.033-.113-.986-2.59-1.043-2.74-.093-.305-.18-.535-.26-.69-.064-.122-.123-.197-.179-.226-.025-.016-.058-.03-.1-.043-.036-.011-.078-.021-.126-.03-.2-.033-.466-.042-.8-.025-.334.016-.601.048-.8.095-.102.023-.21.064-.322.125l-.068.038-.334.24c-.214.178-.444.414-.688.707-.076.092-.148.185-.215.279-.374.522-.612 1.062-.713 1.62-.035.193-.057.383-.064.57-.008.187.001.401.026.642.025.24.048.42.068.537.02.117.06.329.119.634s.093.492.103.56c.132.746.324 1.424.578 2.036.416 1.015 1.04 2.098 1.87 3.247.45.622.9 1.182 1.354 1.68.383.422.768.8 1.155 1.134.04.034.08.07.122.104.478.4 1.03.774 1.654 1.118.062.032.232.128.508.286.275.157.467.266.574.324.107.06.273.141.498.247.224.104.429.185.613.242.183.058.374.104.573.138.68.116 1.4.05 2.16-.196.372-.124.682-.254.93-.39l.345-.224c.122-.095.216-.193.283-.293l.003-.004c.113-.165.234-.395.364-.692.13-.298.213-.544.248-.737.019-.1.02-.178.007-.232"/>
</svg>
