<svg xmlns="http://www.w3.org/2000/svg" width="24" height="24" viewBox="0 0 24 24">
    <path fill="#363C40" fill-rule="evenodd" d="M12 2.5c.228 0 .454.008.678.024h.032l.092.01.058.004-.15-.013a9.475 9.475 0 0 1 .818.097 9.486 9.486 0 0 1 5.657 3.16c.182.21.354.427.517.653l.162.233.061.09a9.462 9.462 0 0 1 1.554 5.874v.027l-.01.115a9.55 9.55 0 0 1-.015.17l-.011.111-.003.015a9.504 9.504 0 0 1-.057.424 9.485 9.485 0 0 1-3.125 5.657 9.43 9.43 0 0 1-.776.61l-.124.085a13.514 13.514 0 0 1-.382.248 9.456 9.456 0 0 1-5.759 1.374h-.03l-.254-.027a9.521 9.521 0 0 1-.054-.006l.308.032a9.48 9.48 0 0 1-1.13-.166l-.09-.02a8.938 8.938 0 0 1-.713-.184l-.023-.01c-.5-.15-.985-.342-1.453-.575a.5.5 0 1 1 .445-.895l.293.137a8.539 8.539 0 0 0 2.176.647 8.584 8.584 0 0 0 4.306-.445 8.675 8.675 0 0 0 .173-.07l.027-.008-.015.003.332-.142a8.536 8.536 0 0 0 1.034-.557l-.12.075c.083-.05.165-.103.246-.156l-.126.08a8.533 8.533 0 0 0 3.266-3.838 8.543 8.543 0 0 0 .536-1.75l-.015.074c.017-.084.032-.168.047-.252l-.032.178a8.546 8.546 0 0 0-.452-4.734l-.017-.042a8.604 8.604 0 0 0-.456-.955l-.168-.289a8.503 8.503 0 0 0-.156-.247l.1.158a8.512 8.512 0 0 0-.177-.271l.077.113a8.441 8.441 0 0 0-.155-.228l.078.115a8.533 8.533 0 0 0-3.64-3.01 8.54 8.54 0 0 0-2.082-.604l.088.014a8.493 8.493 0 0 0-.342-.05l.254.036a8.508 8.508 0 0 0-.557-.068l.074.008A8.604 8.604 0 0 0 12 3.5a.5.5 0 1 1 0-1zM4.068 15.054c.024.064.024.064.05.127a8.496 8.496 0 0 0 1.393 2.313.5.5 0 0 1-.763.646 9.496 9.496 0 0 1-1.557-2.584l-.056-.142a.5.5 0 0 1 .933-.36zm7.67-4.149l3.9 1.114a.5.5 0 1 1-.275.962l-3.101-.886-2.315 4.629a.5.5 0 0 1-.894-.448l2.685-5.37zM3.966 7.913a.5.5 0 0 1 .256.66c-.384.87-.62 1.799-.697 2.746a.5.5 0 1 1-.996-.08 9.527 9.527 0 0 1 .778-3.07.5.5 0 0 1 .659-.256zm5.22-4.476a.5.5 0 0 1-.284.647l-.084.034c-.866.35-1.654.83-2.347 1.423a.5.5 0 1 1-.65-.76 9.493 9.493 0 0 1 2.622-1.59l.095-.038a.5.5 0 0 1 .648.284z"/>
</svg>
