<svg xmlns="http://www.w3.org/2000/svg" width="40" height="40" viewBox="0 0 40 40">
    <path fill="#4B5257" fill-rule="evenodd" d="M25.686 13.228a19.863 19.863 0 0 1 7.5 2.982c.274.19.568.352.894.486l.273.106.275.12c1.209.535 1.808 1.15 1.841 2.362l.001 2.987.008.047a.636.636 0 0 1-.022.219l-.04.11a.89.89 0 0 0-.09.51l.02.103.023.05c.117.296.115.628-.016.947l-.064.136c-.252.386-.668.525-1.384.545l-.185.002h-1.392a3.24 3.24 0 0 1-5.816-.001l-.032.001H14.83l-.022-.001a3.24 3.24 0 0 1-5.81.012L6.01 24.95a.71.71 0 0 1-.6-.375l-.018-.042-.018-.03a.7.7 0 0 1-.04-.517l.045-.109v-.018c-.004-.142-.048-.363-.148-.673l-.054-.162a3.2 3.2 0 0 1 .182-2.531c.599-1.244 1.93-2.314 4.176-3.029a16.9 16.9 0 0 1 4.967-.815l.507.001c.833.016 1.665-.07 2.431-.244a6.91 6.91 0 0 0 3.092-2.108l.205-.253.22-.23c.858-.806 2.08-1.038 4.728-.587zM11.9 21.27a2.24 2.24 0 1 0 0 4.48 2.24 2.24 0 0 0 0-4.48zm18.52 0a2.24 2.24 0 1 0 0 4.48 2.24 2.24 0 0 0 0-4.48zm-8.687-6.808l-.07.063-.167.17a7.89 7.89 0 0 1-3.784 2.672 11.14 11.14 0 0 1-2.263.283h-.981c-1.57.025-3.129.283-4.626.766-1.998.637-3.108 1.529-3.59 2.526a2.21 2.21 0 0 0-.13 1.753c.15.428.245.806.266 1.11l.003.145H8.69a3.24 3.24 0 1 1 6.421-.01H27.21a3.24 3.24 0 1 1 6.423 0h1.088l.271-.005a2.4 2.4 0 0 0 .43-.047.235.235 0 0 0 .028-.178l-.06-.157a1.888 1.888 0 0 1 .057-1.187l.024-.054V19.47c.017-.812-.264-1.17-1.077-1.556l-.444-.198.015.006a5.58 5.58 0 0 1-1.34-.684 18.847 18.847 0 0 0-7.108-2.825c-2.27-.386-3.201-.242-3.783.249zm6.707 1.248c1.31.68 1.56 1.12 1.56 1.38 0 .26-.14.5-1.41.62-.02-.28-.17-1.61-.17-2zm-5.488-1.127l.128.007h.57c.9.1 3.56.71 4.07.83.02.24.22 1.96.22 2.24H26.6c-2.171-.055-5.036-.322-6.26-.442l-.28-.028 1.74-1.86.2-.22a1.13 1.13 0 0 1 1.08-.52zm.588.997h-.46v.01h-.18a1.07 1.07 0 0 1-.14.18l-.21.23-.4.35c1.34.12 3.04.29 4.44.29h.21v-.42c-1.01-.22-2.64-.58-3.26-.64z"/>
</svg>
