<svg xmlns="http://www.w3.org/2000/svg" width="24" height="24" viewBox="0 0 24 24">
    <path fill="#363C40" fill-rule="evenodd" d="M12 2c5.523 0 10 4.477 10 10s-4.477 10-10 10S2 17.523 2 12 6.477 2 12 2zm0 5.5c-3.225 0-6.12.966-8.7 2.904l-.182.136a9.064 9.064 0 0 0-.106 1.927l.175.07c2.288.924 4.01 1.957 5.166 3.109 1.18 1.176 1.888 2.924 2.136 5.227a9.067 9.067 0 0 0 2.919.018c.246-2.313.953-4.066 2.137-5.245 1.084-1.08 2.665-2.056 4.743-2.935l.422-.175.28-.112a9.152 9.152 0 0 0-.108-1.884l-.182-.136C18.12 8.466 15.225 7.5 12 7.5zm8.866 6.055l-.182.074c-1.972.834-3.45 1.745-4.433 2.725-.95.946-1.558 2.378-1.81 4.31a9.01 9.01 0 0 0 6.425-7.11zm-17.723.044l.04.215a9.014 9.014 0 0 0 6.27 6.82c-.255-1.917-.861-3.339-1.806-4.28-.996-.992-2.497-1.913-4.504-2.755zM12 9a3 3 0 1 1 0 6 3 3 0 0 1 0-6zm0 1a2 2 0 1 0 0 4 2 2 0 0 0 0-4zm0-7a9.004 9.004 0 0 0-8.502 6.041C6.049 7.348 8.887 6.5 12 6.5c3.113 0 5.95.848 8.502 2.54A9.003 9.003 0 0 0 12 3z"/>
</svg>
