<svg xmlns="http://www.w3.org/2000/svg" width="24" height="24" viewBox="0 0 24 24">
    <path fill="#ffffff" fill-rule="evenodd" d="M4.629 17.345c.066-.265.01-.554-.156-.816-3.662-5.783-.115-13.34 6.428-14.402 6.384-1.034 11.957 4.377 10.944 10.874-.93 5.965-7.34 9.593-13 7.224-.3-.125-.615-.126-.872-.002l-2.672 1.293a1.008 1.008 0 0 1-1.423-1.151l.75-3.02zm6.439-14.19c-5.864.953-8.954 7.7-5.715 12.816.32.505.422 1.082.287 1.625l-.735 2.957 2.613-1.267c.524-.256 1.153-.262 1.728-.021 5.024 2.094 10.74-1.106 11.57-6.425a8.449 8.449 0 0 0-9.748-9.685zM12.1 16.208a1 1 0 0 1-.709-.273.902.902 0 0 1-.292-.689c0-.269.097-.496.293-.683a.988.988 0 0 1 .708-.279c.277 0 .511.093.702.28.19.186.286.413.286.682a.912.912 0 0 1-.286.689.978.978 0 0 1-.702.273zm-1.586-6.591c.07-.07.15-.128.24-.176a.677.677 0 0 1 .319-.071c.511 0 .767.243.767.728 0 .295-.117.54-.351.734-.234.196-.52.293-.858.293-.442 0-.8-.139-1.072-.416-.274-.277-.41-.637-.41-1.079 0-.728.325-1.348.975-1.859.633-.477 1.443-.715 2.431-.715.97 0 1.75.23 2.34.689.624.468.936 1.083.936 1.846 0 .962-.477 1.686-1.43 2.171a36.34 36.34 0 0 1-.598.26c-.442.182-.743.357-.904.527-.16.169-.24.392-.24.669 0 .243-.03.425-.091.546a.396.396 0 0 1-.221.221.941.941 0 0 1-.364.065c-.485 0-.728-.273-.728-.819 0-.442.113-.819.338-1.131.269-.355.75-.724 1.443-1.105.563-.312.927-.563 1.092-.754.147-.165.221-.394.221-.689 0-.416-.167-.745-.5-.988-.334-.243-.778-.364-1.333-.364-.572 0-1.057.143-1.456.429-.364.251-.546.559-.546.923v.065z"/>
</svg>
