<?xml version="1.0" encoding="UTF-8"?>
<svg width="24px" height="24px" viewBox="0 0 24 24" version="1.1" xmlns="http://www.w3.org/2000/svg" xmlns:xlink="http://www.w3.org/1999/xlink">
    <!-- Generator: sketchtool 52.3 (67297) - http://www.bohemiancoding.com/sketch -->
    <title>97BA9163-460B-4725-8D98-0D731CDF4685</title>
    <desc>Created with sketchtool.</desc>
    <g id="Symbols" stroke="none" stroke-width="1" fill="none" fill-rule="evenodd">
        <g id="Icons/icn-yen" fill="#ffffff">
            <path d="M11.7500835,16.4593756 L11.7500835,14.4593756 L7.25008349,14.4593756 C6.97394111,14.4593756 6.75008349,14.235518 6.75008349,13.9593756 C6.75008349,13.6832333 6.97394111,13.4593756 7.25008349,13.4593756 L11.6727332,13.4593756 L6.56707079,4.61610889 C6.4289996,4.37696258 6.51093718,4.07116738 6.75008349,3.93309619 C6.9892298,3.795025 7.295025,3.87696258 7.43309619,4.11610889 L12.2500835,12.4593756 L17.0670708,4.11610889 C17.205142,3.87696258 17.5109372,3.795025 17.7500835,3.93309619 C17.9892298,4.07116738 18.0711674,4.37696258 17.9330962,4.61610889 L12.8274338,13.4593756 L17.2500835,13.4593756 C17.5262259,13.4593756 17.7500835,13.6832333 17.7500835,13.9593756 C17.7500835,14.235518 17.5262259,14.4593756 17.2500835,14.4593756 L12.7500835,14.4593756 L12.7500835,16.4593756 L17.2500835,16.4593756 C17.5262259,16.4593756 17.7500835,16.6832333 17.7500835,16.9593756 C17.7500835,17.235518 17.5262259,17.4593756 17.2500835,17.4593756 L12.7500835,17.4593756 L12.7500835,20.9593756 C12.7500835,21.235518 12.5262259,21.4593756 12.2500835,21.4593756 C11.9739411,21.4593756 11.7500835,21.235518 11.7500835,20.9593756 L11.7500835,17.4593756 L7.25008349,17.4593756 C6.97394111,17.4593756 6.75008349,17.235518 6.75008349,16.9593756 C6.75008349,16.6832333 6.97394111,16.4593756 7.25008349,16.4593756 L11.7500835,16.4593756 Z" id="Combined-Shape"></path>
        </g>
    </g>
</svg>