<?xml version="1.0" encoding="UTF-8"?>
<svg width="24px" height="24px" viewBox="0 0 24 24" version="1.1" xmlns="http://www.w3.org/2000/svg" xmlns:xlink="http://www.w3.org/1999/xlink">
    <!-- Generator: sketchtool 52.3 (67297) - http://www.bohemiancoding.com/sketch -->
    <title>F1ADDE98-08D9-4AB9-BEF2-2BFD0F2C7500</title>
    <desc>Created with sketchtool.</desc>
    <g id="Symbols" stroke="none" stroke-width="1" fill="none" fill-rule="evenodd">
        <g id="Icons/icn-steering-wheel" fill="#ffffff">
            <path d="M20.8823317,10.5409289 L20.6997443,10.4038059 C18.1196604,8.46616435 15.2250248,7.5 12,7.5 C8.77497519,7.5 5.88033955,8.46616435 3.30025568,10.4038059 L3.11766832,10.5409289 C3.04025053,11.0158294 3,11.5032142 3,12 C3,12.1561282 3.00397554,12.3113279 3.01183091,12.4655034 L3.18732425,12.5364165 C5.47460255,13.4606572 7.19638975,14.4937295 8.35287194,15.6457665 C9.53407128,16.8224256 10.2409054,18.5704994 10.4894591,20.8737875 C10.9805929,20.9567858 11.4852498,21 12,21 C12.4784517,21 12.9481834,20.9626656 13.4064409,20.8907511 C13.6533501,18.5790808 14.3607518,16.8253125 15.5448493,15.6457665 C16.7013315,14.4937295 18.4231187,13.4606572 20.710397,12.5364165 L20.9902191,12.4233464 C20.9967157,12.2830459 21,12.1419065 21,12 C21,11.5032142 20.9597495,11.0158294 20.8823317,10.5409289 Z M20.5019466,9.04009333 C19.2778288,5.52358877 15.9336223,3 12,3 C8.06637772,3 4.72217117,5.52358877 3.49805336,9.04009333 C6.04909834,7.34800833 8.88698724,6.5 12,6.5 C15.1130128,6.5 17.9509017,7.34800833 20.5019466,9.04009333 Z M20.8665124,13.5529706 C18.80335,14.4072693 17.2646543,15.3440701 16.2505931,16.3542335 C15.3007264,17.3004492 14.6926545,18.7328565 14.4401118,20.6652888 C17.7391057,19.7381941 20.27081,16.9778505 20.8665124,13.5529706 Z M3.14161278,13.5989744 C3.74529446,16.9657358 6.22130056,19.6829961 9.45357674,20.6347011 C9.19863172,18.717734 8.59197619,17.2954499 7.64712806,16.3542335 C6.65123778,15.3621712 5.14934636,14.4408659 3.14161278,13.5989744 Z M12,22 C6.4771525,22 2,17.5228475 2,12 C2,6.4771525 6.4771525,2 12,2 C17.5228475,2 22,6.4771525 22,12 C22,17.5228475 17.5228475,22 12,22 Z" id="Combined-Shape"></path>
            <path d="M12,14 C13.1045695,14 14,13.1045695 14,12 C14,10.8954305 13.1045695,10 12,10 C10.8954305,10 10,10.8954305 10,12 C10,13.1045695 10.8954305,14 12,14 Z M12,15 C10.3431458,15 9,13.6568542 9,12 C9,10.3431458 10.3431458,9 12,9 C13.6568542,9 15,10.3431458 15,12 C15,13.6568542 13.6568542,15 12,15 Z" id="Oval"></path>
        </g>
    </g>
</svg>