<svg xmlns="http://www.w3.org/2000/svg" width="104" height="104" viewBox="0 0 104 104">
    <g fill="none" fill-rule="evenodd">
        <circle cx="52" cy="52" r="52" fill="#F8F8F8"/>
        <g fill-rule="nonzero">
            <g fill="#78B9EB">
                <path d="M79.083 57.861a5.428 5.428 0 0 1 0 9.945 5.505 5.505 0 0 1-4.333 0 5.428 5.428 0 0 1 0-9.945v4.972h4.333v-4.972z"/>
                <path d="M79.083 67.806v8.46l-4.333-.65v-7.81a5.505 5.505 0 0 0 4.333 0zM69.333 37.917H59.204c.18-1.074.27-2.161.27-3.25 0-6.381-3.14-11.581-7.095-11.906 9.403.173 16.954 6.89 16.954 15.156zM59.518 68.456l2.232 5.21L52 81.25l-9.75-7.583 2.253-5.255a16.43 16.43 0 0 0 11.527 1.344 15.12 15.12 0 0 0 3.488-1.3z"/>
                <path d="M59.475 34.667c0 1.089-.09 2.176-.27 3.25h-14.41c-.18-1.074-.27-2.161-.27-3.25 0-6.381 3.142-11.581 7.096-11.906.119-.011.249-.011.379-.011s.26 0 .38.01c3.953.326 7.095 5.526 7.095 11.907z"/>
                <path d="M51.62 22.76c-3.953.326-7.095 5.526-7.095 11.907 0 1.089.09 2.176.27 3.25H34.668c0-8.266 7.55-14.983 16.954-15.156zM28.167 57.417l2.166 4.333-1.083 4.333h-4.333l-1.084-4.333L26 57.417zM29.25 66.083v9.533l-4.333.65V66.084z"/>
            </g>
            <path fill="#1A6FB0" d="M58.5 58.5h-2.167a4.334 4.334 0 0 1-8.666 0H45.5a6.5 6.5 0 0 0 13 0z"/>
            <path fill="#1A6FB0" d="M83.577 75.845l-3.41-.511v-6.881a6.501 6.501 0 0 0-.645-11.578 1.082 1.082 0 0 0-1.522.986v3.889h-2.167v-3.889a1.083 1.083 0 0 0-1.516-.986 6.5 6.5 0 0 0-.65 11.578v5.906l-11.158-1.674-1.625-3.791a17.81 17.81 0 0 0 8.45-15.15v-1.852a5.41 5.41 0 0 0-.11-10.626 16.77 16.77 0 0 0-.283-1.721l1.032-.75c.28-.205.445-.532.444-.878 0-7.76-6.198-14.256-14.453-15.862.24-.453.366-.959.37-1.472a3.25 3.25 0 0 0-3.25-3.25h-2.167a3.25 3.25 0 0 0-3.25 3.25c.003.513.13 1.019.369 1.472-8.061 1.568-14.136 7.8-14.421 15.32l-10.459 8.363a1.082 1.082 0 0 0 .677 1.929h6.609a5.433 5.433 0 0 0 4.225 4.225v2.09a17.148 17.148 0 0 0 8.464 14.882l-1.64 3.821-11.158 1.674v-8.142l1.051-4.205c.063-.25.034-.515-.081-.746l-2.167-4.333c-.183-.368-.559-.6-.97-.6H26c-.41 0-.786.232-.97.6l-2.166 4.333a1.084 1.084 0 0 0-.082.746l1.051 4.205v9.117l-3.41.511c-.53.08-.923.535-.923 1.072v4.333c0 .598.485 1.083 1.083 1.083h62.834c.598 0 1.083-.485 1.083-1.083v-4.333c0-.537-.392-.992-.923-1.072zm-9.91-15.876v2.864c0 .599.485 1.084 1.083 1.084h4.333c.599 0 1.084-.485 1.084-1.084V59.97a4.338 4.338 0 0 1-1.517 6.842c-1.11.47-2.363.47-3.473 0a4.338 4.338 0 0 1-1.51-6.842zm2.166 9.274c.718.12 1.45.12 2.167 0v5.766l-2.167-.325v-5.44zM71.5 46.583a3.25 3.25 0 0 1-2.167 3.05v-6.1a3.25 3.25 0 0 1 2.167 3.05zm-3.313-9.75h-7.756c.082-.72.126-1.442.131-2.166.11-3.562-.949-7.063-3.015-9.967 5.857 1.85 10.144 6.532 10.64 12.133zm-22.435 0a17.982 17.982 0 0 1-.148-2.166c0-5.873 2.925-10.834 6.392-10.834 3.466 0 6.391 4.961 6.391 10.834a17.982 17.982 0 0 1-.148 2.166H45.752zm5.165-15.166a1.083 1.083 0 0 1 0-2.167h2.166a1.083 1.083 0 0 1 0 2.167h-2.166zM46.453 24.7a16.329 16.329 0 0 0-3.011 9.967c.005.724.049 1.447.132 2.166h-7.757c.492-5.601 4.779-10.284 10.636-12.133zM35.047 39h30.955l-8.938 6.5H26.922l8.125-6.5zm-2.348 8.667h1.968v1.967a3.247 3.247 0 0 1-1.968-1.967zm4.134 6.316v-6.316h20.584c.229 0 .451-.073.637-.207l8.944-6.5c.11.725.167 1.456.169 2.19v10.594a15.149 15.149 0 0 1-24.54 12.166 15.1 15.1 0 0 1-5.794-11.927zm15.192 17.333a18.144 18.144 0 0 0 4.26-.51c.915-.223 1.81-.525 2.672-.904l1.468 3.421L52 79.877l-8.425-6.552 1.482-3.455a17.374 17.374 0 0 0 6.968 1.448v-.002zM26.67 58.5h.827l1.688 3.376-.78 3.124h-2.643l-.78-3.124L26.67 58.5zM26 67.167h2.167v7.517L26 75.009v-7.842zm-4.333 10.682l20.285-3.041 6.891 5.359H21.667v-2.318zm60.666 2.318H55.157l6.89-5.36 20.286 3.042v2.318z"/>
        </g>
    </g>
</svg>
